<svg role="img" viewBox="0 0 24 24" xmlns="http://www.w3.org/2000/svg" fill="currentColor">
  <title>Instagram</title>
  <path d="M7.03.084c-1.277.06-2.149.264-2.911.563-.789.308-1.458.72-2.123 1.388-.665.668-1.075 1.337-1.38 2.127-.295.764-.496 1.637-.552 2.914C.008 8.354-.005 8.765.001 12.024c.006 3.259.021 3.667.083 4.947.061 1.277.264 2.148.563 2.911.308.789.72 1.457 1.388 2.123.668.666 1.337 1.075 2.128 1.38.763.295 1.636.496 2.914.552 1.277.056 1.688.069 4.946.063 3.258-.006 3.668-.021 4.948-.082 1.28-.061 2.147-.265 2.91-.563.789-.308 1.458-.72 2.123-1.388.665-.668 1.075-1.337 1.38-2.128.296-.763.497-1.636.552-2.912.056-1.281.069-1.69.063-4.948-.006-3.258-.021-3.667-.082-4.947-.061-1.28-.264-2.149-.563-2.912-.308-.789-.72-1.457-1.388-2.123-.668-.665-1.337-1.074-2.128-1.38-.763-.295-1.636-.496-2.913-.552C15.647.009 15.236-.005 11.977.001 8.718.008 8.31.022 7.03.084zM12 6.002a6 6 0 110 12 6 6 0 010-12zm0 2a4 4 0 100 8 4 4 0 000-8zm6.406-2.406a1.44 1.44 0 11-2.88 0 1.44 1.44 0 012.88 0z"/>
</svg>
