<svg role="img" viewBox="0 0 24 24" xmlns="http://www.w3.org/2000/svg" fill="currentColor">
  <title>Snapchat</title>
  <path d="M12.206.793c.99 0 4.347.276 5.93 3.821.529 1.193.403 3.219.299 4.847l-.033.57c.075.045.203.09.401.09.3-.016.659-.12 1.033-.301.494-.27 1.243.014 1.243.928 0 .449-.39.839-1.213 1.168-.494.164-1.198.36-1.333.81-.09.224-.061.524.12.868.06.136 1.526 3.475 4.791 4.014.42.075.42.584.375.734-.24.569-1.273.988-3.146 1.271-.164.27-.224.779-.299 1.123-.075.271-.27.405-.555.405-.509 0-1.243-.209-2.226-.209-2.036 0-2.906 2.172-4.847 2.172h-.149c-1.941 0-2.81-2.172-4.847-2.172-.983 0-1.717.209-2.226.209-.285 0-.48-.134-.555-.405-.075-.344-.135-.853-.299-1.123-1.873-.283-2.906-.702-3.146-1.271-.045-.15-.045-.659.375-.734 3.265-.539 4.731-3.878 4.791-4.014.181-.344.21-.644.12-.868-.135-.45-.839-.646-1.333-.81-.823-.329-1.213-.719-1.213-1.168 0-.914.749-1.198 1.243-.928.374.181.733.285 1.033.301.198 0 .326-.045.401-.09l-.033-.57c-.104-1.628-.23-3.654.299-4.847C7.859 1.069 11.216.793 12.206.793z"/>
</svg>
